<mxfile host="app.diagrams.net" modified="2021-03-17T14:00:16.915Z" agent="5.0 (Macintosh; Intel Mac OS X 10_13_6) AppleWebKit/537.36 (KHTML, like Gecko) Chrome/88.0.4324.192 Safari/537.36 OPR/74.0.3911.218" etag="WowCbDkn7r94RqA4xwVQ" version="14.4.8" type="github">
  <diagram name="Page-1" id="e7e014a7-5840-1c2e-5031-d8a46d1fe8dd">
    <mxGraphModel dx="996" dy="573" grid="1" gridSize="10" guides="1" tooltips="1" connect="1" arrows="1" fold="1" page="1" pageScale="1" pageWidth="1169" pageHeight="826" background="#ffffff" math="0" shadow="0">
      <root>
        <mxCell id="0" />
        <mxCell id="1" parent="0" />
        <mxCell id="2" value="Thread 1" style="swimlane;whiteSpace=wrap" parent="1" vertex="1">
          <mxGeometry x="164.5" y="128" width="280" height="570" as="geometry" />
        </mxCell>
        <mxCell id="5" value="" style="ellipse;shape=startState;fillColor=#000000;strokeColor=#ff0000;" parent="2" vertex="1">
          <mxGeometry x="100" y="40" width="30" height="30" as="geometry" />
        </mxCell>
        <mxCell id="6" value="" style="edgeStyle=elbowEdgeStyle;elbow=horizontal;verticalAlign=bottom;endArrow=open;endSize=8;strokeColor=#FF0000;endFill=1;rounded=0" parent="2" source="5" edge="1">
          <mxGeometry x="100" y="40" as="geometry">
            <mxPoint x="115.5" y="110" as="targetPoint" />
          </mxGeometry>
        </mxCell>
        <mxCell id="8" value="select movie" style="" parent="2" vertex="1">
          <mxGeometry x="60" y="220" width="110" height="50" as="geometry" />
        </mxCell>
        <mxCell id="9" value="" style="endArrow=open;strokeColor=#FF0000;endFill=1;rounded=0" parent="2" target="8" edge="1">
          <mxGeometry relative="1" as="geometry">
            <mxPoint x="115" y="160" as="sourcePoint" />
          </mxGeometry>
        </mxCell>
        <mxCell id="11" value="" style="endArrow=open;strokeColor=#FF0000;endFill=1;rounded=0" parent="2" source="8" edge="1">
          <mxGeometry relative="1" as="geometry">
            <mxPoint x="115" y="325" as="targetPoint" />
          </mxGeometry>
        </mxCell>
        <mxCell id="h4uVtnIKtL1OvdxuYbEB-41" value="hire movie" style="rhombus;fillColor=#ffffc0;strokeColor=#ff0000;" vertex="1" parent="2">
          <mxGeometry x="60" y="110" width="100" height="60" as="geometry" />
        </mxCell>
        <mxCell id="h4uVtnIKtL1OvdxuYbEB-44" value="get cupon" style="rhombus;fillColor=#ffffc0;strokeColor=#ff0000;" vertex="1" parent="2">
          <mxGeometry x="65" y="322" width="100" height="60" as="geometry" />
        </mxCell>
        <mxCell id="h4uVtnIKtL1OvdxuYbEB-45" value="login" style="" vertex="1" parent="2">
          <mxGeometry x="65" y="442" width="110" height="50" as="geometry" />
        </mxCell>
        <mxCell id="h4uVtnIKtL1OvdxuYbEB-68" value="no" style="edgeStyle=elbowEdgeStyle;elbow=horizontal;align=left;verticalAlign=top;endArrow=open;endSize=8;strokeColor=#FF0000;endFill=1;rounded=0;entryX=0.5;entryY=0;entryDx=0;entryDy=0;exitX=0.5;exitY=1;exitDx=0;exitDy=0;" edge="1" parent="2" source="h4uVtnIKtL1OvdxuYbEB-44" target="h4uVtnIKtL1OvdxuYbEB-45">
          <mxGeometry x="-0.0769" relative="1" as="geometry">
            <mxPoint x="420" y="360" as="targetPoint" />
            <mxPoint x="480" y="275" as="sourcePoint" />
            <Array as="points">
              <mxPoint x="115" y="412" />
            </Array>
            <mxPoint as="offset" />
          </mxGeometry>
        </mxCell>
        <mxCell id="3" value="Thread 2" style="swimlane;whiteSpace=wrap" parent="1" vertex="1">
          <mxGeometry x="444.5" y="128" width="280" height="570" as="geometry" />
        </mxCell>
        <mxCell id="13" value="" style="ellipse;shape=startState;fillColor=#000000;strokeColor=#ff0000;" parent="3" vertex="1">
          <mxGeometry x="60" y="40" width="30" height="30" as="geometry" />
        </mxCell>
        <mxCell id="14" value="" style="edgeStyle=elbowEdgeStyle;elbow=horizontal;verticalAlign=bottom;endArrow=open;endSize=8;strokeColor=#FF0000;endFill=1;rounded=0" parent="3" source="13" edge="1">
          <mxGeometry x="40" y="20" as="geometry">
            <mxPoint x="75.5" y="110" as="targetPoint" />
          </mxGeometry>
        </mxCell>
        <mxCell id="16" value="insert movie" style="" parent="3" vertex="1">
          <mxGeometry x="20" y="220" width="110" height="50" as="geometry" />
        </mxCell>
        <mxCell id="17" value="" style="endArrow=open;strokeColor=#FF0000;endFill=1;rounded=0" parent="3" target="16" edge="1">
          <mxGeometry relative="1" as="geometry">
            <mxPoint x="75" y="160" as="sourcePoint" />
          </mxGeometry>
        </mxCell>
        <mxCell id="18" value="check date" style="" parent="3" vertex="1">
          <mxGeometry x="20" y="327" width="110" height="50" as="geometry" />
        </mxCell>
        <mxCell id="19" value="" style="endArrow=open;strokeColor=#FF0000;endFill=1;rounded=0" parent="3" source="16" target="18" edge="1">
          <mxGeometry relative="1" as="geometry" />
        </mxCell>
        <mxCell id="21" value="queue empty" style="rhombus;fillColor=#ffffc0;strokeColor=#ff0000;" parent="3" vertex="1">
          <mxGeometry x="150" y="225" width="80" height="40" as="geometry" />
        </mxCell>
        <mxCell id="22" value="yes" style="edgeStyle=elbowEdgeStyle;elbow=horizontal;align=left;verticalAlign=bottom;endArrow=open;endSize=8;strokeColor=#FF0000;exitX=0.5;exitY=0;endFill=1;rounded=0;entryX=0.75;entryY=0.5;entryPerimeter=0" parent="3" source="21" target="25" edge="1">
          <mxGeometry x="-1" relative="1" as="geometry">
            <mxPoint x="160" y="150" as="targetPoint" />
            <Array as="points">
              <mxPoint x="190" y="180" />
            </Array>
          </mxGeometry>
        </mxCell>
        <mxCell id="23" value="no" style="edgeStyle=elbowEdgeStyle;elbow=horizontal;align=left;verticalAlign=top;endArrow=open;endSize=8;strokeColor=#FF0000;endFill=1;rounded=0;entryX=1;entryY=0.5;entryDx=0;entryDy=0;exitX=0.5;exitY=1;exitDx=0;exitDy=0;" parent="3" source="21" target="18" edge="1">
          <mxGeometry x="-0.7687" relative="1" as="geometry">
            <mxPoint x="190.5" y="325" as="targetPoint" />
            <Array as="points">
              <mxPoint x="190" y="312" />
            </Array>
            <mxPoint as="offset" />
          </mxGeometry>
        </mxCell>
        <mxCell id="24" value="" style="endArrow=open;strokeColor=#FF0000;endFill=1;rounded=0" parent="3" source="16" target="21" edge="1">
          <mxGeometry relative="1" as="geometry" />
        </mxCell>
        <mxCell id="25" value="" style="shape=line;strokeWidth=6;strokeColor=#ff0000;rotation=90" parent="3" vertex="1">
          <mxGeometry x="130" y="127.5" width="50" height="15" as="geometry" />
        </mxCell>
        <mxCell id="26" value="" style="edgeStyle=elbowEdgeStyle;elbow=horizontal;verticalAlign=bottom;endArrow=open;endSize=8;strokeColor=#FF0000;endFill=1;rounded=0" parent="3" source="25" edge="1">
          <mxGeometry x="130" y="90" as="geometry">
            <mxPoint x="130" y="135" as="targetPoint" />
          </mxGeometry>
        </mxCell>
        <mxCell id="32" value="" style="endArrow=none;strokeColor=#FF0000;endFill=0;rounded=0;dashed=1" parent="3" source="18" target="h4uVtnIKtL1OvdxuYbEB-50" edge="1">
          <mxGeometry relative="1" as="geometry" />
        </mxCell>
        <mxCell id="h4uVtnIKtL1OvdxuYbEB-42" value="return&#xa;movie" style="rhombus;fillColor=#ffffc0;strokeColor=#ff0000;" vertex="1" parent="3">
          <mxGeometry x="25" y="110" width="100" height="60" as="geometry" />
        </mxCell>
        <mxCell id="h4uVtnIKtL1OvdxuYbEB-50" value="expired date" style="rhombus;fillColor=#ffffc0;strokeColor=#ff0000;" vertex="1" parent="3">
          <mxGeometry x="35" y="412" width="80" height="40" as="geometry" />
        </mxCell>
        <mxCell id="h4uVtnIKtL1OvdxuYbEB-53" value="payment" style="" vertex="1" parent="3">
          <mxGeometry x="25" y="514" width="110" height="50" as="geometry" />
        </mxCell>
        <mxCell id="h4uVtnIKtL1OvdxuYbEB-58" value="" style="endArrow=open;strokeColor=#FF0000;endFill=1;rounded=0" edge="1" parent="3">
          <mxGeometry relative="1" as="geometry">
            <mxPoint x="140" y="538.5" as="sourcePoint" />
            <mxPoint x="345.5" y="539" as="targetPoint" />
          </mxGeometry>
        </mxCell>
        <mxCell id="h4uVtnIKtL1OvdxuYbEB-72" value="yes" style="edgeStyle=elbowEdgeStyle;elbow=horizontal;align=left;verticalAlign=bottom;endArrow=open;endSize=8;strokeColor=#FF0000;endFill=1;rounded=0;exitX=0.5;exitY=1;exitDx=0;exitDy=0;" edge="1" parent="3" source="h4uVtnIKtL1OvdxuYbEB-50">
          <mxGeometry x="0.5062" relative="1" as="geometry">
            <mxPoint x="74.5" y="492" as="targetPoint" />
            <Array as="points">
              <mxPoint x="74.5" y="492" />
            </Array>
            <mxPoint x="74.5" y="462" as="sourcePoint" />
            <mxPoint as="offset" />
          </mxGeometry>
        </mxCell>
        <mxCell id="4" value="\" style="swimlane;whiteSpace=wrap" parent="1" vertex="1">
          <mxGeometry x="724.5" y="128" width="280" height="570" as="geometry" />
        </mxCell>
        <mxCell id="38" value="" style="ellipse;shape=endState;fillColor=#000000;strokeColor=#ff0000" parent="4" vertex="1">
          <mxGeometry x="231" y="352" width="30" height="30" as="geometry" />
        </mxCell>
        <mxCell id="39" value="" style="endArrow=open;strokeColor=#FF0000;endFill=1;rounded=0" parent="4" source="33" target="38" edge="1">
          <mxGeometry relative="1" as="geometry" />
        </mxCell>
        <mxCell id="h4uVtnIKtL1OvdxuYbEB-57" value="payment&#xa;confirmed" style="rhombus;fillColor=#ffffc0;strokeColor=#ff0000;" vertex="1" parent="4">
          <mxGeometry x="95.5" y="512" width="80" height="45" as="geometry" />
        </mxCell>
        <mxCell id="h4uVtnIKtL1OvdxuYbEB-60" value="" style="whiteSpace=wrap;strokeColor=#FF0000;fillColor=#FF0000" vertex="1" parent="4">
          <mxGeometry x="75.5" y="512" width="5" height="45" as="geometry" />
        </mxCell>
        <mxCell id="h4uVtnIKtL1OvdxuYbEB-73" value="keep movie" style="" vertex="1" parent="4">
          <mxGeometry x="55.5" y="222" width="110" height="50" as="geometry" />
        </mxCell>
        <mxCell id="33" value="send email&#xa;confirmation" style="" parent="4" vertex="1">
          <mxGeometry x="80.5" y="342" width="110" height="50" as="geometry" />
        </mxCell>
        <mxCell id="h4uVtnIKtL1OvdxuYbEB-75" value="yes" style="edgeStyle=elbowEdgeStyle;elbow=horizontal;align=left;verticalAlign=bottom;endArrow=open;endSize=8;strokeColor=#FF0000;endFill=1;rounded=0;exitX=0.5;exitY=0;exitDx=0;exitDy=0;entryX=0;entryY=0.25;entryDx=0;entryDy=0;" edge="1" parent="4" source="h4uVtnIKtL1OvdxuYbEB-57" target="h4uVtnIKtL1OvdxuYbEB-77">
          <mxGeometry x="-0.3333" relative="1" as="geometry">
            <mxPoint x="855" y="560" as="targetPoint" />
            <Array as="points" />
            <mxPoint x="860" y="640" as="sourcePoint" />
            <mxPoint y="1" as="offset" />
          </mxGeometry>
        </mxCell>
        <mxCell id="31" value="apply fine" style="shape=note;whiteSpace=wrap;size=17" parent="4" vertex="1">
          <mxGeometry x="165.5" y="422" width="100" height="50" as="geometry" />
        </mxCell>
        <mxCell id="h4uVtnIKtL1OvdxuYbEB-76" value="no" style="edgeStyle=elbowEdgeStyle;elbow=horizontal;align=left;verticalAlign=bottom;endArrow=open;endSize=8;strokeColor=#FF0000;endFill=1;rounded=0;exitX=1;exitY=0.5;exitDx=0;exitDy=0;entryX=0.5;entryY=1;entryDx=0;entryDy=0;entryPerimeter=0;" edge="1" parent="4" source="h4uVtnIKtL1OvdxuYbEB-57" target="31">
          <mxGeometry x="-1" relative="1" as="geometry">
            <mxPoint x="226.5" y="212" as="targetPoint" />
            <Array as="points">
              <mxPoint x="216" y="512" />
              <mxPoint x="226" y="362" />
              <mxPoint x="206" y="342" />
            </Array>
            <mxPoint x="380" y="192" as="sourcePoint" />
          </mxGeometry>
        </mxCell>
        <mxCell id="h4uVtnIKtL1OvdxuYbEB-77" value="" style="whiteSpace=wrap;strokeColor=#FF0000;fillColor=#FF0000;rotation=-90;" vertex="1" parent="4">
          <mxGeometry x="145.5" y="382" width="5" height="45" as="geometry" />
        </mxCell>
        <mxCell id="20" value="" style="endArrow=open;strokeColor=#FF0000;endFill=1;rounded=0;exitX=1;exitY=0.5;exitDx=0;exitDy=0;entryX=0;entryY=0.5;entryDx=0;entryDy=0;" parent="1" source="8" target="h4uVtnIKtL1OvdxuYbEB-53" edge="1">
          <mxGeometry relative="1" as="geometry">
            <mxPoint x="334.5" y="478" as="sourcePoint" />
            <Array as="points">
              <mxPoint x="400" y="373" />
              <mxPoint x="400" y="478" />
              <mxPoint x="400" y="667" />
            </Array>
          </mxGeometry>
        </mxCell>
        <mxCell id="h4uVtnIKtL1OvdxuYbEB-51" value="process&#xa;command" style="" vertex="1" parent="1">
          <mxGeometry x="1040" y="540" width="110" height="50" as="geometry" />
        </mxCell>
        <mxCell id="h4uVtnIKtL1OvdxuYbEB-52" value="get cupon" style="rhombus;fillColor=#ffffc0;strokeColor=#ff0000;" vertex="1" parent="1">
          <mxGeometry x="1030" y="440" width="100" height="60" as="geometry" />
        </mxCell>
        <mxCell id="h4uVtnIKtL1OvdxuYbEB-66" value="no" style="edgeStyle=elbowEdgeStyle;elbow=horizontal;align=left;verticalAlign=top;endArrow=open;endSize=8;strokeColor=#FF0000;endFill=1;rounded=0;entryX=0;entryY=0.5;entryDx=0;entryDy=0;exitX=1;exitY=0.5;exitDx=0;exitDy=0;" edge="1" parent="1" source="h4uVtnIKtL1OvdxuYbEB-50" target="33">
          <mxGeometry x="-1" y="18" relative="1" as="geometry">
            <mxPoint x="584.5" y="488" as="targetPoint" />
            <mxPoint x="644.5" y="403" as="sourcePoint" />
            <Array as="points">
              <mxPoint x="690" y="560" />
            </Array>
            <mxPoint x="6" y="-1" as="offset" />
          </mxGeometry>
        </mxCell>
        <mxCell id="h4uVtnIKtL1OvdxuYbEB-69" value="yes" style="edgeStyle=elbowEdgeStyle;elbow=horizontal;align=left;verticalAlign=bottom;endArrow=open;endSize=8;strokeColor=#FF0000;exitX=1;exitY=0.5;endFill=1;rounded=0;entryX=0;entryY=0.5;exitDx=0;exitDy=0;entryDx=0;entryDy=0;" edge="1" parent="1" source="h4uVtnIKtL1OvdxuYbEB-44" target="18">
          <mxGeometry x="-1" relative="1" as="geometry">
            <mxPoint x="609.5" y="285.5" as="targetPoint" />
            <Array as="points" />
            <mxPoint x="644.5" y="363" as="sourcePoint" />
          </mxGeometry>
        </mxCell>
        <mxCell id="h4uVtnIKtL1OvdxuYbEB-70" value="yes" style="edgeStyle=elbowEdgeStyle;elbow=horizontal;align=left;verticalAlign=bottom;endArrow=open;endSize=8;strokeColor=#FF0000;endFill=1;rounded=0;" edge="1" parent="1">
          <mxGeometry x="-1" relative="1" as="geometry">
            <mxPoint x="1050" y="370" as="targetPoint" />
            <Array as="points">
              <mxPoint x="1050" y="340" />
            </Array>
            <mxPoint x="1050" y="310" as="sourcePoint" />
          </mxGeometry>
        </mxCell>
        <mxCell id="h4uVtnIKtL1OvdxuYbEB-71" value="no" style="edgeStyle=elbowEdgeStyle;elbow=horizontal;align=left;verticalAlign=bottom;endArrow=open;endSize=8;strokeColor=#FF0000;endFill=1;rounded=0;" edge="1" parent="1">
          <mxGeometry x="-1" relative="1" as="geometry">
            <mxPoint x="1094.5" y="370" as="targetPoint" />
            <Array as="points">
              <mxPoint x="1094.5" y="340" />
            </Array>
            <mxPoint x="1094.5" y="310" as="sourcePoint" />
          </mxGeometry>
        </mxCell>
        <mxCell id="h4uVtnIKtL1OvdxuYbEB-74" value="" style="endArrow=open;strokeColor=#FF0000;endFill=1;rounded=0;exitX=0.5;exitY=1;exitDx=0;exitDy=0;entryX=0.5;entryY=1;entryDx=0;entryDy=0;" edge="1" parent="1" source="21" target="h4uVtnIKtL1OvdxuYbEB-73">
          <mxGeometry relative="1" as="geometry">
            <mxPoint x="640" y="400" as="sourcePoint" />
            <mxPoint x="830" y="440" as="targetPoint" />
            <Array as="points">
              <mxPoint x="635" y="440" />
              <mxPoint x="835" y="440" />
            </Array>
          </mxGeometry>
        </mxCell>
        <mxCell id="h4uVtnIKtL1OvdxuYbEB-78" value="" style="endArrow=open;strokeColor=#FF0000;endFill=1;rounded=0;exitX=0;exitY=0.5;exitDx=0;exitDy=0;exitPerimeter=0;" edge="1" parent="1" source="31">
          <mxGeometry relative="1" as="geometry">
            <mxPoint x="289.5" y="298" as="sourcePoint" />
            <mxPoint x="880" y="540" as="targetPoint" />
            <Array as="points">
              <mxPoint x="880" y="575" />
            </Array>
          </mxGeometry>
        </mxCell>
      </root>
    </mxGraphModel>
  </diagram>
</mxfile>
